PathFileType	4	(X/Y/Z)	C:\Users\WrightLab\Desktop\Jo\P1_boxCal33.trc
DataRate	CameraRate	NumFrames	NumMarkers	Units	OrigDataRate	OrigDataStartFrame	OrigNumFrames
100.00	100.00	       20	19	mm	100.00	313	       624
Frame#	Time	Headset_Front			Headset_Back			Headset_Left			Headset_Right			Left_Shoulder			Right_Shoulder			Sternum			C7			Left Elbow			Right Elbow			Left Wrist			Right Wrist			Left ASIS			Right ASIS			S2			Left Knee			Right Knee			Left Ankle			Right Ankle			
		X1	Y1	Z1	X2	Y2	Z2	X3	Y3	Z3	X4	Y4	Z4	X5	Y5	Z5	X6	Y6	Z6	X7	Y7	Z7	X8	Y8	Z8	X9	Y9	Z9	X10	Y10	Z10	X11	Y11	Z11	X12	Y12	Z12	X13	Y13	Z13	X14	Y14	Z14	X15	Y15	Z15	X16	Y16	Z16	X17	Y17	Z17	X18	Y18	Z18	X19	Y19	Z19	

313	3.120	-32.59694	1358.39136	984.28094	-162.40125	1520.56372	759.60358	-13.72728	1444.41992	796.98993	-171.39021	1408.72131	955.33942	-10.89960	1283.41296	644.94916	-298.90588	1266.83838	896.44031	-75.13248	1175.49609	879.91180	-220.02806	1283.07678	681.70435	28.67341	962.64087	567.69476	-402.42752	1000.84265	881.44604	150.30708	788.09479	632.79980	-454.04050	778.66504	966.00592	30.25317	900.35608	815.15125	-115.97888	891.49640	953.34711	-256.65417	890.97205	647.16199	78.57508	464.60269	648.32599	-143.63869	478.80597	954.20929	-138.52292	236.41710	486.30447	-54.53110	97.20227	905.84760	
314	3.130	-29.95537	1359.94702	994.36072	-156.94725	1522.34827	768.47839	-9.29075	1446.25330	806.12378	-168.83342	1410.19275	963.70380	-6.03658	1285.10730	653.17755	-294.24924	1268.51953	903.88031	-69.92681	1178.06213	887.85388	-214.39407	1284.92200	689.08887	34.37499	964.22351	576.48041	-396.44995	1001.82538	893.09326	155.31859	789.81940	638.73383	-443.50851	779.93799	981.58807	34.87037	900.90399	825.45685	-112.65439	893.14178	963.43280	-250.40382	892.74347	655.56598	94.77344	468.44800	666.21954	-146.29024	475.99847	959.63635	-123.16154	241.27986	502.54477	-54.62313	96.54509	906.19641	
315	3.140	-27.33882	1360.71118	1003.79779	-151.46053	1524.82227	776.75531	-4.27270	1448.03271	816.19409	-166.08539	1411.95032	971.30554	-0.58234	1286.80676	661.49628	-289.93146	1270.29126	911.17682	-63.38350	1181.54504	898.14801	-209.51198	1286.41895	696.88806	40.04997	966.54614	583.71259	-390.47668	1003.12317	904.39276	159.89436	791.47150	644.44812	-431.71814	780.88715	996.74255	38.41604	902.52942	836.07135	-109.51365	894.93463	973.10297	-242.62891	894.69385	664.11633	110.53909	474.22839	683.60522	-149.87613	473.24487	962.13013	-107.26081	245.56328	517.50378	-54.65032	96.38945	906.10785	
316	3.150	-26.05480	1361.89636	1013.19934	-145.84827	1527.42126	785.01825	0.31671	1450.16431	826.69232	-163.59218	1413.42346	979.39294	5.07364	1288.83740	669.55347	-285.27451	1272.19019	918.52734	-59.51541	1182.87244	906.36792	-204.34657	1288.65259	704.40656	46.16465	969.08301	590.33124	-384.46490	1004.34070	914.59021	165.26489	792.69073	650.91089	-421.48373	782.53241	1012.79803	43.47632	903.73401	845.62958	-106.76423	896.87799	981.93756	-236.41132	896.55194	671.63770	124.93752	479.46899	701.29102	-152.73335	472.33524	966.22205	-87.44653	248.76151	533.90991	-54.68346	96.22206	905.99097	
317	3.160	-23.87938	1363.74805	1023.19562	-140.92105	1529.54199	793.50446	5.12895	1451.64661	836.89349	-160.80658	1414.80359	986.84979	9.86042	1290.20923	678.16632	-281.23730	1274.41296	925.48047	-54.69932	1185.15601	913.97314	-199.18776	1290.37000	711.99280	51.92375	971.31940	599.04730	-378.94391	1005.68994	924.53955	170.19470	794.71820	656.74573	-409.83203	784.27478	1028.10388	48.84330	906.05621	856.49939	-104.09669	898.89203	990.67737	-229.50235	898.68848	679.70801	138.88672	485.33585	720.15924	-155.21933	470.61429	967.26648	-68.14832	250.23827	549.31525	-54.74890	95.94643	905.73792	
318	3.170	-22.72411	1364.30933	1031.89844	-135.05617	1531.67249	801.60138	9.63189	1453.33435	846.81683	-158.80154	1416.34631	994.60852	14.81432	1292.36292	685.99365	-276.97699	1276.04675	932.14050	-51.45240	1185.72986	921.24048	-193.50851	1291.71716	719.29596	56.88175	973.18561	606.53369	-373.65472	1007.38989	934.11346	175.46129	797.10883	662.21393	-398.50571	786.96637	1043.32715	52.53436	907.57324	867.00659	-101.59438	900.79388	999.68872	-223.58984	901.38116	687.57745	151.62474	492.43613	739.59680	-157.28192	468.08453	968.91187	-48.22358	249.58061	566.57080	-55.22040	95.96933	906.83398	
319	3.180	-20.62199	1365.48535	1041.62891	-129.77075	1533.87219	809.89679	14.06259	1455.53955	855.80560	-156.25883	1418.36621	1001.67181	20.61866	1294.23120	694.81470	-273.51620	1277.85706	938.61072	-48.42373	1187.84021	929.34381	-188.57950	1293.34485	726.78430	62.29269	975.26056	614.01440	-368.40253	1008.80121	943.55023	180.37776	799.28857	667.90259	-387.22473	789.35535	1058.46985	57.83769	910.12939	876.43860	-98.97389	902.82971	1006.75641	-217.47849	903.68341	695.19855	162.43152	499.26437	756.11292	-159.61102	468.31589	969.33844	-28.86934	247.75793	584.62714	-55.25544	95.80894	906.70380	
320	3.190	-19.84257	1366.31519	1051.19885	-124.41735	1535.59924	818.17731	18.64637	1456.61060	866.11121	-153.76573	1419.59070	1008.94318	25.64548	1296.02893	703.40021	-269.41306	1279.65894	944.89545	-42.65383	1191.64514	940.86145	-182.54550	1294.19556	734.30939	66.90815	977.28113	622.39722	-363.75269	1010.13843	952.43420	186.30766	801.36450	674.08069	-376.14978	791.93079	1074.12061	62.13824	912.40137	887.18176	-95.77535	904.85046	1014.17212	-211.09250	905.38446	701.98297	172.78435	505.64639	774.29065	-160.64322	467.60873	970.35175	-9.29296	244.98517	603.81537	-55.31639	95.56089	906.46478	
321	3.200	-18.44172	1367.74109	1060.09363	-119.76896	1537.80481	825.92767	22.70424	1457.80945	876.71021	-152.11340	1421.23108	1016.27814	30.98718	1297.92236	711.90155	-266.19403	1281.32092	951.40179	-39.30396	1194.64722	948.95502	-178.08192	1296.29700	742.09711	72.39561	979.28003	628.90790	-358.65588	1011.76422	961.16479	191.39117	802.74066	680.07294	-364.73434	794.57410	1088.78284	66.12516	914.50647	897.38379	-93.29903	906.98096	1021.66309	-204.49419	907.21393	709.49243	181.14821	512.41187	791.06763	-161.85254	466.06921	971.72845	10.72090	241.64487	623.40942	-55.35994	95.38348	906.29419	
322	3.210	-17.92000	1368.30798	1068.55750	-114.45577	1539.33557	833.59894	27.04252	1458.87781	887.08014	-150.95175	1422.91785	1023.72754	36.13551	1299.24976	721.08142	-262.62531	1282.92639	957.93365	-37.06565	1195.41370	954.41815	-172.28961	1296.93005	749.73096	76.65475	981.79675	637.52460	-354.37100	1013.00812	969.32104	196.85387	804.62378	686.48737	-353.28851	797.76758	1103.03357	70.28036	916.60144	906.85864	-91.03164	909.03528	1028.57483	-197.61151	908.53333	716.74158	189.14291	517.24487	808.67419	-161.86234	465.95963	973.97998	30.38639	238.40628	643.57996	-55.41547	95.11344	906.09467	
323	3.220	-16.59911	1369.58215	1078.59680	-109.21008	1541.09436	841.60864	31.25910	1459.86389	897.57703	-148.61568	1424.09668	1030.75293	40.85884	1301.04272	729.84308	-259.38821	1284.29871	964.77429	-31.62180	1198.21082	966.65479	-166.84195	1297.81750	757.27380	81.87888	983.58746	644.37207	-349.82327	1014.14178	977.84369	202.59637	806.20850	692.55267	-342.34317	800.81744	1117.60767	74.37606	919.08167	917.45068	-88.60392	910.71332	1035.23047	-191.24475	909.86743	723.67346	195.61795	522.71136	824.06329	-161.93384	465.55270	976.24591	50.70892	233.58345	664.97864	-55.45722	94.92630	905.93823	
324	3.230	-15.58408	1369.93262	1087.65845	-104.20464	1541.98572	849.59021	35.50577	1460.26538	907.51868	-146.74802	1425.06396	1038.57068	46.11891	1301.93311	738.94421	-255.51787	1285.55408	970.79059	-30.13087	1198.71912	972.88495	-161.20592	1298.54102	764.72668	86.84684	985.03717	653.49030	-345.54803	1015.53162	986.18231	208.33826	808.03967	699.00775	-331.39703	803.88135	1131.78113	78.53907	921.32080	928.39606	-85.98211	912.67847	1041.52649	-184.53340	910.87854	730.25793	201.74570	527.07819	840.43909	-162.02864	466.13486	979.83978	71.58132	228.73434	687.01685	-55.48120	94.79568	905.85797	
325	3.240	-13.98526	1370.88599	1096.98938	-98.87663	1543.08923	857.79431	39.47799	1460.77417	918.34827	-144.78558	1426.14697	1045.65808	51.62048	1303.27673	748.51666	-251.71254	1286.40918	977.58789	-25.83983	1199.64465	981.62585	-156.42342	1299.24805	772.43829	91.95724	987.15765	661.08167	-341.11035	1015.82294	993.99316	213.69981	808.66492	704.82166	-320.59903	807.26318	1145.75244	82.25120	922.67358	938.16296	-83.68348	914.13635	1048.31116	-178.22427	911.60864	736.47449	207.36333	531.30573	857.34387	-161.37418	466.05399	983.47583	90.83637	222.40311	708.57513	-55.54669	94.50056	905.61353	
326	3.250	-13.16265	1371.19348	1106.20813	-94.27294	1543.79346	866.26678	43.36325	1461.31018	927.88184	-142.38272	1426.82935	1053.07800	56.78025	1304.44885	757.62451	-248.07703	1286.92090	984.01685	-22.43907	1200.52966	990.31958	-151.25896	1299.79114	780.28424	97.10917	988.84979	669.24908	-337.37411	1016.55103	1002.00720	218.87598	810.54889	711.39465	-309.80307	810.29456	1159.63049	85.88304	923.75537	948.54370	-81.61429	914.86249	1055.80432	-170.03926	912.10083	743.58887	212.76859	533.43829	873.44196	-159.65895	465.56696	986.56531	111.44583	214.97375	731.87988	-55.47635	94.63799	905.95056	
327	3.260	-12.11633	1371.55286	1116.09070	-89.07800	1544.03247	874.32703	47.28891	1461.84424	938.66565	-140.17589	1426.93970	1060.40051	62.38791	1304.12500	767.32581	-244.33582	1287.45374	990.63544	-19.13813	1201.30750	999.24042	-145.13153	1299.95288	787.69702	102.87675	989.71875	676.86359	-333.29132	1016.79596	1010.74054	224.41595	811.43298	717.17401	-299.30777	813.64471	1173.03455	89.82690	924.81635	959.83704	-79.77187	915.93933	1063.99109	-163.16904	912.11945	749.50830	217.28284	536.34058	889.20386	-157.79025	465.01535	989.94128	131.19131	207.16278	755.57593	-55.46040	94.64286	906.03796	
328	3.270	-11.43956	1371.58801	1125.92590	-83.40261	1543.97949	882.76257	51.15254	1461.69836	948.96045	-138.53754	1427.38879	1067.93811	68.53034	1304.67407	778.34479	-241.01047	1287.84570	997.31750	-16.43149	1201.66345	1008.55353	-139.74739	1300.63416	795.28436	108.32586	990.82263	686.20569	-329.87589	1017.15442	1019.54730	230.11540	811.57825	724.92206	-288.78708	816.29120	1185.80176	93.28027	925.63428	970.14886	-77.20361	916.25018	1071.80457	-155.48428	912.12811	756.29999	222.00015	537.26959	905.11816	-154.71588	464.44324	993.38898	150.60078	199.11078	780.77362	-55.39708	94.79658	906.32892	
329	3.280	-10.42007	1371.67773	1135.75671	-78.97121	1543.95410	891.42853	55.17026	1462.20313	960.23639	-136.81567	1427.15369	1075.28381	74.17575	1304.68530	788.23584	-237.14067	1287.69824	1004.24023	-12.82748	1201.44482	1016.97778	-133.91321	1300.49683	803.05408	114.34998	991.70856	694.49652	-324.76682	1017.32855	1028.58008	235.83424	812.13971	731.17511	-278.58859	819.44189	1199.02930	96.80425	925.36145	981.30676	-75.87745	917.30902	1081.44629	-147.57253	912.38855	761.60974	225.78313	537.90125	920.78595	-151.47858	463.38898	996.55280	169.99962	191.59756	804.68274	-54.96106	94.14046	906.08423	
330	3.290	-9.78338	1371.04553	1145.09082	-74.12859	1544.08179	899.89673	58.57172	1462.00415	970.50659	-134.97284	1426.03064	1082.58508	80.82718	1304.76550	798.43970	-233.45117	1287.67810	1011.03870	-8.30419	1202.06189	1028.31934	-127.98296	1300.21472	810.88812	120.11772	992.08063	702.43646	-319.31329	1015.91760	1038.07227	241.69020	812.41302	738.45270	-268.57825	822.32306	1211.96179	100.56049	925.71637	992.97412	-76.40166	915.30420	1087.46265	-139.29543	912.17273	767.43829	229.15714	538.40900	935.90234	-148.47452	462.76480	999.43195	188.45601	184.73180	830.71503	-54.93211	94.15060	906.24231	
331	3.300	-8.10513	1370.90027	1156.14185	-69.40602	1543.63818	909.00415	62.35416	1462.05701	982.15009	-133.30656	1425.29126	1089.81396	86.00253	1303.73071	808.42682	-229.20241	1287.17651	1018.18890	-6.57145	1200.37036	1035.01953	-121.63743	1300.49182	818.59882	127.06068	992.49731	711.77460	-314.50406	1015.46240	1047.86914	247.46945	812.01758	745.10028	-257.49094	824.74652	1224.39026	103.46922	924.73132	1004.11151	-75.15588	913.91357	1094.62366	-131.73753	912.83740	773.16040	232.09840	538.38141	950.42267	-145.70831	461.52121	1002.93085	207.93323	177.56801	857.84369	-54.82365	94.42676	906.73566	
332	3.310	-7.63161	1369.25500	1165.98926	-64.14526	1542.77649	918.15924	65.93477	1461.57581	992.89270	-131.87711	1423.54431	1097.35022	92.58349	1303.21851	818.80865	-225.00583	1287.13379	1024.73975	-1.94945	1200.11584	1044.63123	-116.59246	1300.39038	826.21796	133.54803	992.04224	720.81134	-309.27310	1014.98383	1057.71130	253.47813	811.61810	752.42133	-247.59825	827.65125	1236.66504	106.10799	923.52966	1014.82086	-74.08034	912.59503	1102.45630	-123.24560	912.41199	779.29688	235.17021	537.02429	965.47211	-143.55946	460.86954	1005.37012	225.85161	169.58890	885.68054	-54.76922	94.56477	906.98346	
